<svg width="599" height="117" viewBox="0 0 599 117" fill="none" xmlns="http://www.w3.org/2000/svg">
<path d="M115.769 6.97217C117.215 34.6105 89.5413 53.5721 72.6496 53.5721C44.2607 53.5721 26.4774 53.5721 0.123857 53.5721C-0.893859 36.3245 3.72019 9.91815 38.2079 8.57899C55.5627 8.57899 104.092 7.40059 115.769 6.97217Z" fill="#D9D9D9"/>
<path d="M119.493 60.36C119.493 94.5536 100.715 109.79 74.3862 109.79C57.0183 109.79 58.4786 114.641 58.4785 80.5363C58.4785 63.4899 56.6158 62.4217 71.3154 62.4217C128.429 62.4217 119.493 -12.9794 119.493 60.36Z" fill="#F35A13"/>
<path d="M49.8669 62.4641C51.3532 94.336 22.1403 111.427 0 109.938C0.051141 97.0561 0 78.5925 0 62.4641C22.6013 62.4643 22.6013 62.4641 22.6013 62.4641C22.6013 62.4641 28.5464 62.4641 49.8669 62.4641Z" fill="#D9D9D9"/>
<path d="M153.691 49.0845V89.3306" stroke="#D9D9D9" stroke-width="9"/>
<path d="M150 52.7769H195.415" stroke="#D9D9D9" stroke-width="9"/>
<line x1="150" y1="23.1692" x2="198" y2="23.1692" stroke="#D9D9D9" stroke-width="9"/>
<path d="M224.699 40.168V93H215.617V40.168H224.699ZM214.934 26.1543C214.934 24.6895 215.373 23.4525 216.252 22.4434C217.163 21.4342 218.498 20.9297 220.256 20.9297C221.981 20.9297 223.299 21.4342 224.211 22.4434C225.155 23.4525 225.627 24.6895 225.627 26.1543C225.627 27.554 225.155 28.7585 224.211 29.7676C223.299 30.7441 221.981 31.2324 220.256 31.2324C218.498 31.2324 217.163 30.7441 216.252 29.7676C215.373 28.7585 214.934 27.554 214.934 26.1543Z" fill="#D9D9D9"/>
<path d="M289.143 75.0312C289.143 73.3711 288.882 71.9062 288.361 70.6367C287.873 69.3346 286.994 68.1628 285.725 67.1211C284.488 66.0794 282.762 65.0866 280.549 64.1426C278.368 63.1986 275.601 62.2383 272.248 61.2617C268.732 60.2201 265.559 59.0645 262.727 57.7949C259.895 56.4928 257.469 55.0117 255.451 53.3516C253.433 51.6914 251.887 49.7871 250.812 47.6387C249.738 45.4902 249.201 43.0326 249.201 40.2656C249.201 37.4987 249.771 34.9434 250.91 32.5996C252.049 30.2559 253.677 28.2214 255.793 26.4961C257.941 24.7383 260.497 23.3711 263.459 22.3945C266.421 21.418 269.725 20.9297 273.371 20.9297C278.71 20.9297 283.234 21.9551 286.945 24.0059C290.689 26.0241 293.537 28.6771 295.49 31.9648C297.443 35.2201 298.42 38.7031 298.42 42.4141H289.045C289.045 39.7448 288.475 37.3848 287.336 35.334C286.197 33.2507 284.471 31.623 282.16 30.4512C279.849 29.2467 276.919 28.6445 273.371 28.6445C270.018 28.6445 267.251 29.1491 265.07 30.1582C262.889 31.1673 261.262 32.5345 260.188 34.2598C259.146 35.985 258.625 37.9544 258.625 40.168C258.625 41.6654 258.934 43.0326 259.553 44.2695C260.204 45.474 261.197 46.597 262.531 47.6387C263.898 48.6803 265.624 49.6406 267.707 50.5195C269.823 51.3984 272.346 52.2448 275.275 53.0586C279.312 54.1979 282.795 55.4674 285.725 56.8672C288.654 58.2669 291.063 59.8457 292.951 61.6035C294.872 63.3288 296.288 65.2982 297.199 67.5117C298.143 69.6927 298.615 72.1667 298.615 74.9336C298.615 77.8307 298.029 80.4512 296.857 82.7949C295.686 85.1387 294.009 87.1406 291.828 88.8008C289.647 90.4609 287.027 91.7467 283.967 92.6582C280.939 93.5371 277.554 93.9766 273.811 93.9766C270.523 93.9766 267.284 93.5208 264.094 92.6094C260.936 91.6979 258.055 90.3307 255.451 88.5078C252.88 86.6849 250.812 84.4388 249.25 81.7695C247.72 79.0677 246.955 75.9427 246.955 72.3945H256.33C256.33 74.8359 256.802 76.9355 257.746 78.6934C258.69 80.4186 259.976 81.8509 261.604 82.9902C263.264 84.1296 265.135 84.9759 267.219 85.5293C269.335 86.0501 271.532 86.3105 273.811 86.3105C277.098 86.3105 279.882 85.8548 282.16 84.9434C284.439 84.0319 286.164 82.7298 287.336 81.0371C288.54 79.3444 289.143 77.3424 289.143 75.0312Z" fill="#D9D9D9"/>
<path d="M313 55.804H361" stroke="#D9D9D9" stroke-width="9"/>
<path d="M313.996 86.25H361.007" stroke="#D9D9D9" stroke-width="9"/>
<line x1="313" y1="26.25" x2="361" y2="26.25" stroke="#D9D9D9" stroke-width="9"/>
<path d="M433.947 21.9062V93H424.475L388.684 38.166V93H379.26V21.9062H388.684L424.621 76.8867V21.9062H433.947Z" fill="#D9D9D9"/>
<path d="M504.18 70.3926H513.555C513.066 74.8848 511.781 78.9049 509.697 82.4531C507.614 86.0013 504.668 88.8171 500.859 90.9004C497.051 92.9512 492.298 93.9766 486.602 93.9766C482.435 93.9766 478.643 93.1953 475.225 91.6328C471.839 90.0703 468.926 87.8568 466.484 84.9922C464.043 82.0951 462.155 78.6283 460.82 74.5918C459.518 70.5228 458.867 65.998 458.867 61.0176V53.9375C458.867 48.957 459.518 44.4486 460.82 40.4121C462.155 36.3431 464.059 32.86 466.533 29.9629C469.04 27.0658 472.051 24.8359 475.566 23.2734C479.082 21.7109 483.037 20.9297 487.432 20.9297C492.803 20.9297 497.344 21.9388 501.055 23.957C504.766 25.9753 507.646 28.7747 509.697 32.3555C511.781 35.9036 513.066 40.0215 513.555 44.709H504.18C503.724 41.3887 502.878 38.5404 501.641 36.1641C500.404 33.7552 498.646 31.8997 496.367 30.5977C494.089 29.2956 491.11 28.6445 487.432 28.6445C484.274 28.6445 481.491 29.2467 479.082 30.4512C476.706 31.6556 474.704 33.3646 473.076 35.5781C471.481 37.7917 470.277 40.4447 469.463 43.5371C468.649 46.6296 468.242 50.0638 468.242 53.8398V61.0176C468.242 64.5007 468.6 67.7721 469.316 70.832C470.065 73.8919 471.188 76.5775 472.686 78.8887C474.183 81.1999 476.087 83.0228 478.398 84.3574C480.71 85.6595 483.444 86.3105 486.602 86.3105C490.605 86.3105 493.796 85.6758 496.172 84.4062C498.548 83.1367 500.339 81.3138 501.543 78.9375C502.78 76.5612 503.659 73.7129 504.18 70.3926Z" fill="#D9D9D9"/>
<path d="M529.008 55.804H577.008" stroke="#D9D9D9" stroke-width="9"/>
<path d="M530.004 86.25H577.015" stroke="#D9D9D9" stroke-width="9"/>
<line x1="529.008" y1="26.25" x2="577.008" y2="26.25" stroke="#D9D9D9" stroke-width="9"/>
</svg>
