<svg width="1792" height="1540" viewBox="0 0 1792 1540" fill="none" xmlns="http://www.w3.org/2000/svg">
<path d="M1728.86 0C1750.45 412.749 1337.18 695.921 1084.93 695.921C660.977 695.921 395.406 695.921 1.84965 695.921C-13.3486 438.346 55.5563 43.9951 570.586 23.9962C829.758 23.9962 1554.48 6.39797 1728.86 0Z" fill="#D9D9D9"/>
<path d="M1784.42 797.288C1784.42 1307.94 1504 1535.47 1110.8 1535.47C851.433 1535.47 873.24 1607.93 873.239 1098.6C873.239 844.03 845.421 828.077 1064.94 828.077C1917.86 828.077 1784.42 -297.967 1784.42 797.288Z" fill="#F35A13"/>
<path d="M744.703 828.708C766.898 1304.68 330.639 1559.92 0 1537.69C0.76373 1345.31 0 1069.57 0 828.708C337.524 828.711 337.524 828.708 337.524 828.708C337.524 828.708 426.307 828.708 744.703 828.708Z" fill="#D9D9D9"/>
</svg>
