<svg width="66" height="56" viewBox="0 0 66 56" fill="none" xmlns="http://www.w3.org/2000/svg">
<path fill-rule="evenodd" clip-rule="evenodd" d="M51.2747 9.63343C50.9515 11.425 50.9515 11.425 50.7164 12.5705C50.1287 14.1858 49.3648 15.4781 48.3951 16.8879C48.3363 16.9172 48.3069 16.9466 48.2482 16.976C45.5449 20.0599 42.3127 21.9689 38.434 23.3199C37.67 23.4962 37.67 23.4962 37.5819 23.5549V23.7311C37.8463 23.9955 38.3458 23.9367 38.6691 23.9367C38.9629 24.0248 38.9629 24.0248 39.433 24.0542C40.8435 24.4948 42.1951 25.0234 43.488 25.787C43.5762 25.9045 44.1932 26.3451 45.1923 27.2262L46.0738 28.2835C46.6908 29.1646 47.1316 30.1926 47.5136 31.2205L47.8662 32.8065C47.925 33.3939 47.925 33.3939 47.925 34.9212C47.8074 35.6554 47.6605 36.3897 47.543 37.124C47.3373 37.5645 47.2785 37.8876 46.9259 38.7687C46.1619 40.2959 45.3098 41.7057 44.1932 42.998C42.8416 44.4078 41.3724 45.6413 39.815 46.8161C39.5506 46.9336 39.1392 47.0805 38.9629 47.3154C36.5534 48.6664 34.1733 49.5769 31.5582 50.4874C29.9421 50.8105 28.3554 51.1335 26.7099 51.3391C23.7127 51.5154 23.7127 51.5154 22.8606 51.6035C20.216 51.6916 10.0199 52.1909 9.84357 52.1615C9.69665 52.0146 9.72603 51.6328 9.84357 51.486C12.5763 50.693 15.3677 49.7825 18.1298 49.107C18.3649 49.0189 23.0075 47.6679 23.4776 47.4916C25.5639 47.0511 27.6208 46.2581 29.6776 45.7001C30.1478 45.5238 32.616 44.8483 34.9079 44.1728C36.9354 43.7029 39.0804 43.0567 41.0491 42.3812C41.1373 42.2637 41.1373 42.1463 41.1373 41.9994C41.0785 41.97 41.0198 41.9113 40.9904 41.8819C40.8141 41.8819 38.1695 42.5574 25.8283 45.5532C25.7696 45.5826 25.7108 45.6119 25.6814 45.6413C23.4189 46.0819 21.1563 46.728 18.8938 47.2567C18.7175 47.3154 18.5412 47.3742 18.3942 47.4329C9.84357 49.4594 9.84356 49.4594 9.63788 49.5476H9.40281C9.22651 49.3126 9.10897 49.2832 9.16774 48.9601C9.81418 48.549 9.81418 48.549 11.4009 47.6385C11.8123 47.4623 15.7203 45.2301 16.1023 45.0539C19.217 43.2036 22.4492 41.4707 25.5639 39.6498C28.179 38.2106 30.8236 36.7128 33.4387 35.2736C33.5269 35.2149 33.6151 35.1561 33.7032 35.068C35.7013 34.0401 37.6406 32.8946 39.6093 31.8079C40.5202 31.4261 41.4899 30.8387 42.3127 30.2807C42.4596 30.0751 42.342 29.8108 42.107 29.7814C40.197 30.7506 38.3165 31.7492 36.4359 32.7184C36.1421 32.8065 36.1421 32.8065 35.8482 33.0121C30.4416 35.7729 30.4416 35.7729 30.0008 35.9491C29.3838 36.331 27.7677 37.124 27.6208 37.2414C25.2701 38.4162 22.9194 39.6498 20.598 40.9127C20.5099 40.9421 20.4511 40.9421 20.3923 40.9714C19.1288 41.8232 17.6009 42.3812 16.308 43.1742C14.0455 44.2903 11.7535 45.4651 9.52035 46.6399C9.25589 46.6986 7.55163 47.9028 7.72793 46.728C8.52129 45.9938 9.31466 45.2301 10.108 44.4959C10.3431 44.2315 10.9602 43.6735 11.0483 43.6441C11.9004 42.7043 12.8701 41.6176 13.9279 40.9127C13.9867 40.8246 14.0748 40.7365 14.1336 40.619C16.1905 38.7099 18.2767 36.7715 20.2454 34.745C26.1516 29.1059 32.0871 23.4668 38.0226 17.9158C38.1989 17.6809 38.3752 17.4459 38.6397 17.2991C42.2539 13.8334 42.489 13.569 46.779 9.48658C47.0728 9.28099 47.0728 9.28099 47.161 9.10477C47.161 8.39988 46.7496 8.72295 46.3676 9.01665C45.3098 10.074 44.1638 11.0138 43.0766 12.0418C42.6653 12.6292 41.9307 13.0404 41.4605 13.5984C40.4321 14.5383 39.2274 15.8012 38.052 16.6235C37.1999 17.4753 36.2302 18.3564 35.2899 19.0906C31.9108 22.3507 28.179 25.2878 24.8293 28.5772C23.1838 29.8695 21.744 31.5436 20.0691 32.8065C19.6284 33.3058 19.6284 33.3058 16.6312 36.0666C16.5137 36.1547 16.4255 36.2135 16.308 36.2722C12.9583 39.3561 9.54973 42.3812 6.14121 45.4064C5.75922 45.4064 5.67107 45.3182 5.70045 44.9364C9.7848 39.0036 13.8691 33.0415 17.8947 27.0793C19.5402 24.6122 21.1563 22.0864 22.89 19.678C24.1241 17.8571 24.2122 17.6809 24.653 17.0935C27.7971 12.4236 31.088 7.72437 34.1733 2.99576C34.5553 2.61395 34.4378 2.37899 33.9383 2.43773C31.3231 6.109 28.6198 9.72154 26.034 13.4516C25.5933 14.0096 24.7705 15.2431 16.0142 27.4905C15.8085 27.8136 12.6644 32.1016 12.4587 32.366C9.63788 36.3016 6.81704 40.2959 3.93743 44.1728C3.79051 44.2903 3.64359 44.4078 3.4379 44.2903V43.9378C5.49477 38.5925 7.66917 33.2177 9.90234 27.9604C13.1639 19.7662 16.4255 11.5131 19.7459 3.31883C19.7459 3.14261 19.7459 3.14261 19.6284 2.99576C19.5108 2.99576 19.3933 3.02513 19.3051 3.11324C16.7781 8.78169 14.163 14.4501 11.6066 20.1186C11.4891 20.2654 8.81513 26.2276 8.05116 27.7549C7.72793 28.5478 7.46348 29.0471 7.11088 29.8695C4.93648 34.4513 2.85022 39.1211 0.763976 43.7616C0.499522 43.8791 0.264454 43.9085 0 43.791C0.0293838 43.4679 0.029381 43.4679 1.05781 39.6792C1.14597 39.4736 1.4398 38.3281 1.52796 38.0932C1.61611 37.682 1.70426 37.4764 2.70331 33.5408C3.23222 31.573 3.76112 29.6052 4.31942 27.6667C4.40757 27.2556 9.40281 9.19288 9.46158 8.92854C9.63788 8.34114 9.7848 7.78311 9.9611 7.1957C10.6075 4.66986 11.2834 2.32025 11.7829 0.293702C11.8417 0.146851 11.9004 0.11748 12.018 0.0293698C20.9506 0.0293698 29.9127 0.0587404 38.8747 0C41.6074 0.146851 44.3989 0.616774 46.9259 1.79158C47.1904 1.99717 47.1904 1.99717 47.8368 2.34962C48.3951 2.7608 48.9828 3.23072 49.5117 3.75939C49.8055 4.17057 50.07 4.58175 50.3638 4.99294C50.5401 5.40412 50.687 5.84467 50.8633 6.25586C50.9809 6.87263 51.1278 7.4894 51.2453 8.07681C51.2453 8.54673 51.2453 9.0754 51.2747 9.63343ZM65.5846 11.9537C65.4083 13.2166 65.2026 14.3914 64.85 15.5956C64.1154 17.1228 64.1154 17.1228 63.6453 17.9746C62.7932 19.2669 61.706 20.3536 60.56 21.3815C59.4434 22.2333 59.4434 22.2333 58.2387 23.085C56.7989 23.9367 55.2121 24.6122 53.6842 25.3171C53.0965 25.4933 52.3913 25.6402 51.8624 25.9633C51.8624 26.1101 51.8624 26.1101 51.8918 26.1689C53.8605 26.3745 55.5941 27.05 57.2396 28.1367C58.033 28.8122 58.797 29.4877 59.4728 30.3101C60.2661 31.4555 60.8832 32.5716 61.3533 33.8639C61.4709 34.3925 61.5884 34.8918 61.706 35.4205C61.7941 36.2428 61.7941 37.0652 61.7941 37.9169C61.5296 40.3253 60.6481 42.4693 59.3553 44.5252C58.5325 45.6707 58.5325 45.6707 57.7098 46.728C56.2993 48.1965 54.5657 49.8706 52.6851 50.7224C51.3041 51.7503 49.4529 52.3965 47.8662 53.0426C46.8671 53.3363 45.8387 53.6594 44.8397 53.9825C42.5771 54.3936 42.5771 54.3936 42.342 54.4817C40.6084 54.658 40.6084 54.658 40.1383 54.7461C30.089 55.1573 19.9222 54.981 9.87295 54.981C9.75541 54.7754 9.69665 54.4817 9.9611 54.3643C14.78 54.1587 19.6284 53.9237 24.4473 53.7769C25.3876 53.7769 26.416 53.8062 27.3269 53.6594C30.5591 53.5419 33.7032 53.395 36.906 52.8958C37.1117 52.8076 37.9639 52.6314 39.2274 52.3084C45.4861 50.2818 51.1866 46.3168 53.8311 40.0903C54.0074 39.5323 54.0074 39.5323 54.1837 39.2092L54.6245 37.0946C54.6538 35.3617 54.6538 35.3617 54.6245 34.6862C54.3894 33.0121 53.7723 31.338 52.8027 29.9576C52.3619 29.4877 51.9505 28.9884 51.5098 28.5185C49.4529 26.9031 47.4254 25.8164 44.7809 25.6108C44.7809 25.4052 44.8397 25.3759 45.016 25.2878C45.6624 25.1115 45.6624 25.1115 46.5733 24.7885C50.7458 22.9675 54.4775 20.5298 56.8282 16.5354C57.0633 16.0068 57.2984 15.4487 57.5335 14.8907C57.9448 13.5397 58.1799 12.1886 58.2974 10.7789C58.2387 10.1621 58.2093 9.54532 58.1799 8.92854C58.0624 8.54673 57.9448 8.13555 57.8273 7.72437C57.3278 6.52019 56.7989 5.78593 55.888 4.87545C54.4482 3.73002 52.832 2.87828 51.0103 2.4671C51.0103 2.43773 51.0103 2.37899 51.0396 2.34962C51.9799 2.1734 53.1259 2.34962 54.0662 2.40836C54.5069 2.49647 54.5069 2.49647 56.0936 2.67269C56.6226 2.79017 57.1515 2.90765 57.7098 3.02513C59.414 3.49506 61.1183 4.08246 62.5581 5.11042C62.9695 5.49223 63.4102 5.87404 63.8216 6.25586C64.1742 6.81389 64.5268 7.34255 64.8794 7.87122C65.0557 8.39988 65.232 8.89917 65.4083 9.42784C65.4377 10.1915 65.5552 11.0726 65.5846 11.9537Z" fill="#F94F00"/>
</svg>
