<svg width="371" height="371" viewBox="0 0 371 371" fill="none" xmlns="http://www.w3.org/2000/svg">
<rect width="371" height="371" rx="185.5" fill="#98272A"/>
<path fill-rule="evenodd" clip-rule="evenodd" d="M110.746 167.869L108.232 179.922H97.2446C98.0797 175.932 98.9169 171.654 99.866 167.572C100.06 166.686 100.275 165.78 100.479 164.791C100.479 164.092 100.581 163.396 100.695 162.698C101.11 157.822 97.4491 156.922 93.9022 158.418C91.7908 159.214 90.8503 160.603 89.8194 162.402C88.8659 163.995 88.5668 165.483 88.1342 167.474L85.4116 179.922H74.5234L80.9048 150.254C84.258 150.154 87.6004 150.054 90.9601 149.962C90.5468 151.848 90.0217 153.642 89.7075 155.533C93.7967 150.854 99.0094 148.468 105.096 150.154C111.165 151.748 112.431 157.53 111.473 163.093C111.355 164.791 111.165 166.279 110.746 167.869Z" fill="white"/>
<path fill-rule="evenodd" clip-rule="evenodd" d="M309.319 136.826H320.001L310.475 180.017H300.644C301.055 178.423 301.468 176.837 302.002 175.231C300.004 177.031 298.338 178.519 296.137 179.521V173.048C296.974 172.855 297.822 172.548 298.545 172.158C301.698 170.263 302.933 166.879 302.933 163.493L302.731 161.803C302.527 160.217 301.799 158.813 299.903 158.026C298.87 157.422 297.394 157.422 296.137 157.627V149.958C296.759 149.958 297.284 150.154 297.822 150.154C300.852 150.852 303.459 152.751 304.944 155.632L309.319 136.826ZM296.137 179.521C295.409 179.92 294.581 180.117 293.619 180.309C290.707 181.005 289.011 181.207 285.98 180.117C282.429 178.918 280.656 176.632 279.293 173.547C276.153 165.987 279.595 155.237 287.343 151.552C289.852 150.353 293.093 149.665 296.137 149.958V157.627C295.304 157.727 294.372 158.026 293.733 158.418C291.951 159.517 290.795 161.107 290.173 162.993C289.45 164.88 289.011 167.572 289.65 169.559C289.852 170.558 290.28 171.266 290.898 171.853C292.362 173.048 294.372 173.344 296.137 173.048" fill="white"/>
<path fill-rule="evenodd" clip-rule="evenodd" d="M220.552 150.662L218.356 157.027C215.326 156.237 213.116 155.828 209.984 155.634C209.033 155.634 208.318 155.533 207.589 155.726C205.376 156.237 204.431 158.119 206.112 159.517C208.198 161.504 211.867 161.995 214.482 163.593C215.121 163.998 215.847 164.593 216.574 165.189C218.651 168.272 218.356 171.558 216.163 174.75C212.7 179.617 206.112 180.117 200.144 179.718C196.898 179.511 194.174 178.92 190.924 178.324L192.925 171.155C196.898 172.157 199.417 173.056 203.161 172.644C204.851 172.548 207.272 172.644 207.272 170.463C206.844 168.867 205.279 167.869 203.594 167.177C201.093 166.083 198.368 165.387 196.382 163.492C195.213 161.903 194.893 160.708 194.893 158.719C194.893 156.728 195.536 155.341 196.477 154.042C201.825 146.784 212.821 148.871 220.552 150.662Z" fill="white"/>
<path fill-rule="evenodd" clip-rule="evenodd" d="M158.481 149.958L169.574 149.762C168.739 153.447 167.893 157.128 167.056 161.003C166.548 163.493 165.498 166.687 166.234 169.169C166.658 170.558 167.157 171.059 168.532 171.454C170.104 171.957 172.105 171.655 173.358 170.758C177.116 168.176 178.164 163.89 179.104 159.71L181.407 149.762H192.194L185.486 179.923C182.35 180.017 179.205 179.822 175.96 179.923C176.272 178.222 176.7 175.734 177.116 174.042C175.96 175.043 175.026 176.142 173.767 177.032C172.202 178.222 170.31 179.022 168.326 179.522C166.019 180.017 162.878 180.017 160.679 179.119C158.266 178.222 156.493 176.142 155.548 173.844C154.295 170.758 154.812 168.676 155.341 165.484C156.174 160.313 157.334 155.037 158.481 149.958Z" fill="white"/>
<path fill-rule="evenodd" clip-rule="evenodd" d="M146.124 136.826H156.805L147.178 180.017H137.334C137.754 178.423 138.277 176.837 138.688 175.231C136.817 177.031 135.04 178.519 132.941 179.521V173.048C133.783 172.855 134.609 172.548 135.354 172.158C138.376 170.263 139.645 166.879 139.645 163.493L139.525 161.803C139.322 160.217 138.485 158.813 136.619 158.026C135.547 157.422 134.088 157.422 132.941 157.627V149.958C133.466 149.958 133.974 150.154 134.609 150.154C137.545 150.852 140.16 152.751 141.731 155.632L146.124 136.826ZM132.941 179.521C132.108 179.92 131.265 180.117 130.414 180.309C127.502 181.005 125.731 181.207 122.692 180.117C119.221 178.918 117.337 176.632 115.971 173.547C112.927 165.987 116.416 155.237 124.046 151.552C126.555 150.353 129.902 149.665 132.941 149.958V157.627C132.001 157.727 131.168 158.026 130.414 158.418C128.755 159.517 127.502 161.107 126.863 162.993C126.14 164.88 125.731 167.572 126.338 169.559C126.555 170.558 126.973 171.266 127.692 171.853C129.175 173.048 131.045 173.344 132.941 173.048" fill="white"/>
<path fill-rule="evenodd" clip-rule="evenodd" d="M66.4649 136.826H77.663L68.3524 179.92H57.0488" fill="white"/>
<path fill-rule="evenodd" clip-rule="evenodd" d="M274.16 167.869L271.533 179.922H260.44C261.378 175.932 262.319 171.654 263.165 167.572C263.373 166.686 263.593 165.78 263.903 164.896C263.903 164.092 263.903 163.396 263.995 162.698C264.533 157.822 260.634 156.922 257.19 158.418C255.201 159.312 254.261 160.603 253.219 162.402C252.18 163.995 251.857 165.587 251.545 167.474L248.708 179.922H238.035L244.214 150.254C247.552 150.154 250.927 150.154 254.261 149.962C253.848 151.848 253.419 153.642 252.995 155.533C257.08 150.854 262.319 148.468 268.388 150.154C274.468 151.748 275.729 157.53 274.892 163.197C274.677 164.791 274.468 166.279 274.16 167.869Z" fill="white"/>
<path fill-rule="evenodd" clip-rule="evenodd" d="M229.136 136.826H240.444L231.133 179.92H219.812" fill="white"/>
<path fill-rule="evenodd" clip-rule="evenodd" d="M187.585 194.268H193.34C198.377 194.268 206.118 194.963 207.564 200.537C207.885 201.433 207.986 202.321 207.986 203.215V203.323C207.986 206.595 206.325 209.488 203.185 211.487C200.979 212.473 199.108 212.975 196.909 213.57C202.55 214.464 206.228 218.149 205.068 224.023C203.378 232.179 195.329 233.466 187.585 233.973V226.812C188.001 226.812 188.431 226.706 188.741 226.601C195.223 225.609 196.683 218.444 190.523 217.155C189.565 216.95 188.64 216.842 187.585 216.95V210.577C188.842 210.577 190.204 210.476 191.347 210.288C194.81 209.488 199.405 206.108 195.635 202.321C194.063 200.741 190.306 200.934 187.585 201.13V194.268ZM177.119 194.268H187.585V201.13H186.64L184.436 210.476C185.383 210.476 186.548 210.577 187.585 210.577V216.95C186.117 216.95 184.546 217.155 183.083 217.257L180.885 227.201C182.76 227.101 185.287 227.101 187.585 226.812V233.973C186.95 234.074 186.24 234.074 185.584 234.174H168.635" fill="white"/>
<path fill-rule="evenodd" clip-rule="evenodd" d="M242.004 217.5C241.061 221.78 240.12 225.96 239.268 230.144L238.859 233.52H229.751L230.392 228.945C228.821 230.435 227.136 231.73 225.362 232.63V227.454C225.457 227.354 225.662 227.354 225.866 227.247C227.035 226.656 227.876 226.259 228.494 225.655C229.964 224.17 230.704 221.889 231.311 219.99H229.751C228.406 219.99 226.82 219.898 225.362 219.99V215.014C227.551 214.817 230.067 214.909 232.57 214.909C232.57 212.317 231.529 210.339 228.703 209.747C227.45 209.543 226.307 209.543 225.362 209.543V203.366C232.168 202.578 239.391 203.668 241.902 209.543C243.149 212.524 242.432 214.414 242.004 217.5ZM225.362 232.63C223.684 233.428 221.792 233.932 220.018 234.12C215.929 234.515 211.644 232.733 209.866 229.144C208.601 227.151 208.93 224.968 209.436 222.682C209.974 220.493 211.026 219.294 213.725 217.5C217.606 215.714 221.394 215.11 225.362 215.014V219.99C223.787 220.09 222.218 220.493 221.172 221.193C219.082 222.682 218.254 225.469 220.539 227.151C221.902 228.045 223.787 227.961 225.362 227.454V232.63ZM225.362 209.543C223.886 209.543 222.625 209.639 220.965 210.042C219.082 210.435 217.72 211.034 215.929 211.822L217.186 204.863C219.713 204.272 222.41 203.668 225.362 203.366" fill="white"/>
<path fill-rule="evenodd" clip-rule="evenodd" d="M280.028 222.041L277.418 234.174H266.321C267.158 230.098 268.208 225.718 269.056 221.734C269.241 220.742 269.461 219.851 269.678 218.851C269.678 218.153 269.767 217.458 269.881 216.75C270.309 211.874 266.534 210.992 262.965 212.473C260.977 213.282 260.045 214.671 258.906 216.465C257.951 218.057 257.641 219.555 257.223 221.537L254.483 234.082H243.6L249.893 204.218C253.222 204.117 256.69 204.017 260.045 203.919C259.621 205.807 259.195 207.706 258.784 209.496C262.767 204.817 268.208 202.427 274.181 204.017C280.452 205.713 281.604 211.592 280.769 217.165C280.655 218.851 280.343 220.343 280.028 222.041Z" fill="white"/>
<path fill-rule="evenodd" clip-rule="evenodd" d="M291.219 190.883H302.206L296.55 216.559L307.656 204.211H320.001L307.034 217.85L315.184 234.174H303.457L296.247 218.346L292.788 234.174H282.01" fill="white"/>
</svg>
